<svg width="1038" height="312" viewBox="0 0 1038 312" fill="none" xmlns="http://www.w3.org/2000/svg">
<path d="M22.5 97.5625C23.6484 97.5625 24.5859 96.7188 24.7734 95.5C26.7422 80.9922 28.7578 78.9766 42.8203 77.4062C44.0391 77.2656 44.9531 76.2812 44.9531 75.1094C44.9531 73.9375 44.0625 72.9766 42.8203 72.8125C28.8047 71.0781 26.9297 69.2031 24.7734 54.6953C24.5625 53.5 23.6484 52.6562 22.5 52.6562C21.3516 52.6562 20.3906 53.5 20.2266 54.7188C18.2344 69.2266 16.2422 71.2422 2.17969 72.8125C0.9375 72.9531 0.046875 73.9141 0.046875 75.1094C0.046875 76.2812 0.9375 77.2422 2.15625 77.4062C16.1953 79.3047 18 81.0156 20.2266 95.5C20.4375 96.7188 21.375 97.5625 22.5 97.5625Z" fill="#F39369"/>
<path d="M1015.5 311.562C1016.65 311.562 1017.59 310.719 1017.77 309.5C1019.74 294.992 1021.76 292.977 1035.82 291.406C1037.04 291.266 1037.95 290.281 1037.95 289.109C1037.95 287.938 1037.06 286.977 1035.82 286.812C1021.8 285.078 1019.93 283.203 1017.77 268.695C1017.56 267.5 1016.65 266.656 1015.5 266.656C1014.35 266.656 1013.39 267.5 1013.23 268.719C1011.23 283.227 1009.24 285.242 995.18 286.812C993.938 286.953 993.047 287.914 993.047 289.109C993.047 290.281 993.938 291.242 995.156 291.406C1009.2 293.305 1011 295.016 1013.23 309.5C1013.44 310.719 1014.38 311.562 1015.5 311.562Z" fill="#F39369"/>
<path d="M894.977 45.0234C896.125 45.0234 897.062 44.1797 897.25 42.9609C899.219 28.4531 901.234 26.4375 915.297 24.8672C916.516 24.7266 917.43 23.7422 917.43 22.5703C917.43 21.3984 916.539 20.4375 915.297 20.2734C901.281 18.5391 899.406 16.6641 897.25 2.15625C897.039 0.960938 896.125 0.117188 894.977 0.117188C893.828 0.117188 892.867 0.960938 892.703 2.17969C890.711 16.6875 888.719 18.7031 874.656 20.2734C873.414 20.4141 872.523 21.375 872.523 22.5703C872.523 23.7422 873.414 24.7031 874.633 24.8672C888.672 26.7656 890.477 28.4766 892.703 42.9609C892.914 44.1797 893.852 45.0234 894.977 45.0234Z" fill="#F39369"/>
<path d="M924.023 75.1172C924.816 75.1172 925.463 74.5347 925.593 73.6934C926.952 63.6783 928.343 62.2868 938.051 61.2028C938.892 61.1057 939.523 60.4262 939.523 59.6172C939.523 58.8082 938.909 58.1448 938.051 58.0316C928.376 56.8343 927.081 55.5399 925.593 45.5248C925.447 44.6997 924.816 44.1172 924.023 44.1172C923.231 44.1172 922.567 44.6997 922.454 45.541C921.079 55.5561 919.703 56.9476 909.996 58.0316C909.138 58.1287 908.523 58.792 908.523 59.6172C908.523 60.4262 909.138 61.0895 909.98 61.2028C919.671 62.5133 920.917 63.6944 922.454 73.6934C922.6 74.5347 923.247 75.1172 924.023 75.1172Z" fill="#F39369"/>
</svg>
